<?xml version="1.0" encoding="UTF-8"?>
<svg width="400" height="200" viewBox="0 0 400 200" fill="none" xmlns="http://www.w3.org/2000/svg">
  <!-- Shopping bag icon -->
  <path d="M100 60C100 53.3726 105.373 48 112 48H288C294.627 48 300 53.3726 300 60V160C300 166.627 294.627 172 288 172H112C105.373 172 100 166.627 100 160V60Z" fill="#3B82F6" fill-opacity="0.1"/>
  <path d="M140 48V40C140 28.9543 148.954 20 160 20H240C251.046 20 260 28.9543 260 40V48" stroke="#3B82F6" stroke-width="4"/>
  
  <!-- Shopping cart icon -->
  <circle cx="160" cy="110" r="20" fill="#3B82F6" fill-opacity="0.1"/>
  <circle cx="240" cy="110" r="20" fill="#3B82F6" fill-opacity="0.1"/>
  <path d="M140 110H260" stroke="#3B82F6" stroke-width="4"/>
  
  <!-- Abstract shopping elements -->
  <rect x="180" y="80" width="40" height="40" rx="8" fill="#3B82F6" fill-opacity="0.1"/>
  <rect x="180" y="130" width="40" height="40" rx="8" fill="#3B82F6" fill-opacity="0.1"/>
  
  <!-- Decorative elements -->
  <circle cx="50" cy="50" r="30" fill="#3B82F6" fill-opacity="0.05"/>
  <circle cx="350" cy="150" r="40" fill="#3B82F6" fill-opacity="0.05"/>
  <circle cx="350" cy="50" r="20" fill="#3B82F6" fill-opacity="0.05"/>
  <circle cx="50" cy="150" r="25" fill="#3B82F6" fill-opacity="0.05"/>
</svg> 