<?xml version="1.0" encoding="UTF-8"?>
<svg width="400" height="200" viewBox="0 0 400 200" fill="none" xmlns="http://www.w3.org/2000/svg">
  <!-- Document icon -->
  <path d="M120 40C120 35.5817 123.582 32 128 32H272C276.418 32 280 35.5817 280 40V160C280 164.418 276.418 168 272 168H128C123.582 168 120 164.418 120 160V40Z" fill="#3B82F6" fill-opacity="0.1"/>
  
  <!-- Document lines -->
  <path d="M160 60H240" stroke="#3B82F6" stroke-width="2"/>
  <path d="M160 80H240" stroke="#3B82F6" stroke-width="2"/>
  <path d="M160 100H240" stroke="#3B82F6" stroke-width="2"/>
  <path d="M160 120H240" stroke="#3B82F6" stroke-width="2"/>
  
  <!-- Checkmark icon -->
  <path d="M180 140L200 160L220 140" stroke="#3B82F6" stroke-width="4" stroke-linecap="round" stroke-linejoin="round"/>
  
  <!-- Career ladder elements -->
  <rect x="280" y="60" width="40" height="20" rx="4" fill="#3B82F6" fill-opacity="0.1"/>
  <rect x="280" y="90" width="40" height="20" rx="4" fill="#3B82F6" fill-opacity="0.1"/>
  <rect x="280" y="120" width="40" height="20" rx="4" fill="#3B82F6" fill-opacity="0.1"/>
  
  <!-- Decorative elements -->
  <circle cx="80" cy="40" r="25" fill="#3B82F6" fill-opacity="0.05"/>
  <circle cx="80" cy="160" r="35" fill="#3B82F6" fill-opacity="0.05"/>
  <circle cx="320" cy="40" r="20" fill="#3B82F6" fill-opacity="0.05"/>
  <circle cx="320" cy="160" r="30" fill="#3B82F6" fill-opacity="0.05"/>
</svg> 